# Blender 4.2.1 LTS
# www.blender.org
mtllib deer.mtl
o Cube
v 9.230728 8.152854 -0.489307
v 9.230728 7.410221 -0.489307
v 7.230728 8.152854 -1.000000
v 7.118099 6.805535 -0.844223
v 7.118099 6.805535 0.000000
v 9.230728 8.152854 0.000000
v 7.230728 8.152854 0.000000
v 9.230728 7.410221 0.000000
v 5.290388 8.152854 -1.000000
v 5.290388 6.875477 -1.000000
v 5.290388 8.152854 0.000000
v 6.537384 6.875477 0.000000
v 6.334157 9.065112 0.000000
v 6.334157 9.065112 -1.000000
v 5.290388 9.065112 0.000000
v 5.290388 9.065112 -1.000000
v 3.725198 6.006832 -0.796964
v 3.725198 4.729455 -1.000000
v 3.725198 6.006832 0.000000
v 4.972194 4.729455 0.000000
v -3.293835 6.006832 -1.341026
v -3.293835 4.729455 -1.341026
v -3.293835 6.006832 0.000000
v -3.293835 4.729455 0.000000
v 3.725198 3.282232 -1.000000
v 3.725198 3.282232 0.000000
v -3.293835 3.282232 -1.341026
v -3.293835 3.282232 0.000000
v 3.725198 3.282232 -0.500000
v -3.293835 3.282232 -0.670513
v 0.215682 3.282232 0.000000
v -2.276365 3.282232 -1.170513
v -2.276365 3.282232 -0.585256
v 2.810030 3.282232 -1.044464
v 2.810030 3.282232 0.000000
v 2.810030 3.282232 -0.522232
v 3.725198 -0.533304 -1.531969
v 3.725198 -0.533304 -1.031969
v 2.810030 -0.533304 -1.576433
v 2.810030 -0.533304 -1.054201
v -3.936625 -0.668707 -1.690788
v -3.936625 -0.668707 -1.020276
v -2.919156 -0.668707 -1.520276
v -2.919156 -0.668707 -0.935019
v 0.265580 6.006832 0.000000
v 0.265580 4.729455 -1.168088
v 0.265580 6.006832 -0.965053
v 9.230728 8.152854 0.489307
v 9.230728 7.410221 0.489307
v 7.230728 8.152854 1.000000
v 7.118099 6.805535 0.844223
v 5.290388 8.152854 1.000000
v 5.290388 6.875477 1.000000
v 6.334157 9.065112 1.000000
v 5.290388 9.065112 1.000000
v 3.725198 6.006832 0.796964
v 3.725198 4.729455 1.000000
v -3.293835 6.006832 1.341026
v -3.293835 4.729455 1.341026
v 3.725198 3.282232 1.000000
v -3.293835 3.282232 1.341026
v 3.725198 3.282232 0.500000
v -3.293835 3.282232 0.670513
v -2.276365 3.282232 1.170513
v -2.276365 3.282232 0.585256
v 2.810030 3.282232 1.044464
v 2.810030 3.282232 0.522232
v 3.725198 -0.533304 1.531969
v 3.725198 -0.533304 1.031969
v 2.810030 -0.533304 1.576433
v 2.810030 -0.533304 1.054201
v -3.936625 -0.668707 1.690788
v -3.936625 -0.668707 1.020276
v -2.919156 -0.668707 1.520276
v -2.919156 -0.668707 0.935019
v 0.265580 4.729455 1.168088
v 0.265580 6.006832 0.965053
vn -0.0606 -0.9973 0.0410
vn 0.2171 -0.0842 -0.9725
vn 1.0000 -0.0000 -0.0000
vn 0.2752 -0.9614 -0.0000
vn -0.0000 1.0000 -0.0000
vn -0.8079 0.5893 -0.0000
vn 0.0401 -0.0609 -0.9973
vn -0.0000 -0.0000 -1.0000
vn -1.0000 -0.0000 -0.0000
vn 0.7132 0.7009 -0.0000
vn 0.7970 -0.3434 -0.4969
vn 0.5692 -0.4151 -0.7097
vn -0.1707 0.0781 -0.9822
vn 0.0766 0.0790 -0.9939
vn -0.0000 -1.0000 -0.0000
vn 0.0485 -0.0363 -0.9982
vn 0.0481 0.1379 -0.9893
vn -0.0241 -0.1380 0.9901
vn 0.1650 0.0603 -0.9845
vn -0.9870 0.1606 -0.0000
vn 0.9870 -0.1606 -0.0000
vn -0.0833 -0.0744 0.9937
vn 0.0479 0.1568 -0.9865
vn -0.0606 -0.9973 -0.0410
vn 0.2171 -0.0842 0.9725
vn 0.0401 -0.0609 0.9973
vn -0.0000 -0.0000 1.0000
vn 0.7970 -0.3434 0.4969
vn 0.5692 -0.4151 0.7097
vn -0.1707 0.0781 0.9822
vn 0.0766 0.0790 0.9939
vn 0.0485 -0.0363 0.9982
vn 0.0481 0.1379 0.9893
vn -0.0241 -0.1380 -0.9901
vn 0.1650 0.0603 0.9845
vn -0.0833 -0.0744 -0.9937
vn 0.0479 0.1568 0.9865
vt 0.165666 0.834334
vt 0.001001 0.834334
vt 0.001001 0.998999
vt 0.165666 0.998999
vt 0.748999 0.915666
vt 0.748999 0.834334
vt 0.584334 0.834334
vt 0.584334 0.915666
vt 0.332332 0.917668
vt 0.251001 0.917668
vt 0.251001 0.998999
vt 0.332332 0.998999
vt 0.915666 0.832332
vt 0.915666 0.667668
vt 0.834334 0.667668
vt 0.834334 0.832332
vt 0.334334 0.915666
vt 0.498999 0.915666
vt 0.498999 0.834334
vt 0.334334 0.834334
vt 0.748999 0.334334
vt 0.667668 0.334334
vt 0.667668 0.665666
vt 0.748999 0.665666
vt 0.665666 0.001001
vt 0.501001 0.001001
vt 0.501001 0.165666
vt 0.665666 0.165666
vt 0.167668 0.915666
vt 0.332332 0.915666
vt 0.332332 0.834334
vt 0.167668 0.834334
vt 0.415666 0.917668
vt 0.334334 0.917668
vt 0.334334 0.998999
vt 0.415666 0.998999
vt 0.498999 0.917668
vt 0.417668 0.917668
vt 0.417668 0.998999
vt 0.498999 0.998999
vt 0.582332 0.834334
vt 0.501001 0.834334
vt 0.501001 0.998999
vt 0.582332 0.998999
vt 0.665666 0.314967
vt 0.501001 0.332332
vt 0.573027 0.167668
vt 0.619346 0.176351
vt 0.665666 0.185033
vt 0.332332 0.665666
vt 0.332332 0.501001
vt 0.001001 0.501001
vt 0.001001 0.665666
vt 0.498999 0.001001
vt 0.334334 0.001001
vt 0.334334 0.332332
vt 0.498999 0.332332
vt 0.498999 0.667668
vt 0.334334 0.667668
vt 0.334334 0.832332
vt 0.498999 0.832332
vt 0.332332 0.498999
vt 0.332332 0.334334
vt 0.001001 0.334334
vt 0.001001 0.498999
vt 0.915666 0.001001
vt 0.834334 0.001001
vt 0.834334 0.332332
vt 0.915666 0.332332
vt 0.665666 0.667668
vt 0.501001 0.667668
vt 0.501001 0.832332
vt 0.665666 0.832332
vt 0.832332 0.832332
vt 0.667668 0.832332
vt 0.667668 0.667668
vt 0.750000 0.667668
vt 0.832332 0.667668
vt 0.665666 0.334334
vt 0.665666 0.417837
vt 0.665666 0.498999
vt 0.335337 0.498999
vt 0.335337 0.477529
vt 0.334334 0.358342
vt 0.335337 0.334334
vt 0.915666 0.834334
vt 0.834334 0.834334
vt 0.834334 0.915666
vt 0.915666 0.915666
vt 0.998999 0.001001
vt 0.917668 0.001001
vt 0.917668 0.332332
vt 0.998999 0.332332
vt 0.332332 0.165666
vt 0.332332 0.001001
vt 0.001001 0.001001
vt 0.001001 0.165666
vt 0.248999 0.917668
vt 0.167668 0.917668
vt 0.167668 0.998999
vt 0.248999 0.998999
vt 0.832332 0.834334
vt 0.751001 0.834334
vt 0.751001 0.915666
vt 0.832332 0.915666
vt 0.998999 0.334334
vt 0.917668 0.334334
vt 0.917668 0.665666
vt 0.998999 0.665666
vt 0.001001 0.832332
vt 0.332332 0.832332
vt 0.332332 0.751001
vt 0.001001 0.751001
vt 0.915666 0.665666
vt 0.915666 0.334334
vt 0.834334 0.334334
vt 0.834334 0.665666
vt 0.334334 0.665666
vt 0.665666 0.665666
vt 0.665666 0.584334
vt 0.334334 0.584334
vt 0.748999 0.332332
vt 0.748999 0.001001
vt 0.667668 0.001001
vt 0.667668 0.332332
vt 0.334334 0.582332
vt 0.665666 0.582332
vt 0.665666 0.501001
vt 0.334334 0.501001
vt 0.832332 0.001001
vt 0.751001 0.001001
vt 0.751001 0.332332
vt 0.832332 0.332332
vt 0.001001 0.748999
vt 0.332332 0.748999
vt 0.332332 0.667668
vt 0.001001 0.667668
vt 0.832332 0.334334
vt 0.751001 0.334334
vt 0.751001 0.665666
vt 0.832332 0.665666
vt 0.332332 0.332332
vt 0.332332 0.167668
vt 0.001001 0.167668
vt 0.001001 0.332332
vt 0.664665 0.917668
vt 0.584334 0.917668
vt 0.584334 0.997998
vt 0.665666 0.918669
vt 0.585335 0.998999
vt 0.665666 0.998999
vt 0.997998 0.667668
vt 0.917668 0.667668
vt 0.917668 0.747998
vt 0.998999 0.668669
vt 0.918669 0.748999
vt 0.998999 0.748999
s 0
usemtl Material
f 4/1/1 5/2/1 12/3/1 10/4/1
f 4/5/2 3/6/2 1/7/2 2/8/2
f 2/9/3 1/10/3 6/11/3 8/12/3
f 4/13/4 2/14/4 8/15/4 5/16/4
f 1/17/5 3/18/5 7/19/5 6/20/5
f 11/21/6 9/22/6 17/23/6 19/24/6
f 3/25/7 4/26/7 10/27/7 9/28/7
f 3/29/8 9/30/8 16/31/8 14/32/8
f 13/33/5 14/34/5 16/35/5 15/36/5
f 9/37/9 11/38/9 15/39/9 16/40/9
f 7/41/10 3/42/10 14/43/10 13/44/10
f 18/45/11 20/46/11 26/47/11 29/48/11 25/49/11
f 10/50/12 12/51/12 20/52/12 18/53/12
f 9/54/13 10/55/13 18/56/13 17/57/13
f 24/58/9 23/59/9 21/60/9 22/61/9
f 47/62/14 46/63/14 22/64/14 21/65/14
f 45/66/5 47/67/5 21/68/5 23/69/5
f 33/70/15 31/71/15 28/72/15 30/73/15
f 24/74/9 22/75/9 27/76/9 30/77/9 28/78/9
f 22/79/16 46/80/16 18/81/16 25/82/16 34/83/16 32/84/16 27/85/16
f 32/86/15 33/87/15 30/88/15 27/89/15
f 34/90/15 36/91/15 33/92/15 32/93/15
f 36/94/15 35/95/15 31/96/15 33/97/15
f 29/98/15 26/99/15 35/100/15 36/101/15
f 25/102/15 29/103/15 36/104/15 34/105/15
f 34/106/17 25/107/17 37/108/17 39/109/17
f 34/110/9 39/111/9 40/112/9 36/113/9
f 36/114/18 40/115/18 38/116/18 29/117/18
f 29/118/3 38/119/3 37/120/3 25/121/3
f 32/122/19 43/123/19 41/124/19 27/125/19
f 27/126/20 41/127/20 42/128/20 30/129/20
f 32/130/21 33/131/21 44/132/21 43/133/21
f 30/134/22 42/135/22 44/136/22 33/137/22
f 19/138/5 17/139/5 47/140/5 45/141/5
f 17/142/23 18/143/23 46/144/23 47/145/23
f 40/146/15 39/147/15 37/148/15
f 40/149/15 37/150/15 38/151/15
f 42/152/15 41/153/15 43/154/15
f 42/155/15 43/156/15 44/157/15
f 51/1/24 53/4/24 12/3/24 5/2/24
f 51/5/25 49/8/25 48/7/25 50/6/25
f 49/9/3 8/12/3 6/11/3 48/10/3
f 51/13/4 5/16/4 8/15/4 49/14/4
f 48/17/5 6/20/5 7/19/5 50/18/5
f 11/21/6 19/24/6 56/23/6 52/22/6
f 50/25/26 52/28/26 53/27/26 51/26/26
f 50/29/27 54/32/27 55/31/27 52/30/27
f 13/33/5 15/36/5 55/35/5 54/34/5
f 52/37/9 55/40/9 15/39/9 11/38/9
f 7/41/10 13/44/10 54/43/10 50/42/10
f 57/45/28 60/49/28 62/48/28 26/47/28 20/46/28
f 53/50/29 57/53/29 20/52/29 12/51/29
f 52/54/30 56/57/30 57/56/30 53/55/30
f 24/58/9 59/61/9 58/60/9 23/59/9
f 77/62/31 58/65/31 59/64/31 76/63/31
f 45/66/5 23/69/5 58/68/5 77/67/5
f 65/70/15 63/73/15 28/72/15 31/71/15
f 24/74/9 28/78/9 63/77/9 61/76/9 59/75/9
f 59/79/32 61/85/32 64/84/32 66/83/32 60/82/32 57/81/32 76/80/32
f 64/86/15 61/89/15 63/88/15 65/87/15
f 66/90/15 64/93/15 65/92/15 67/91/15
f 67/94/15 65/97/15 31/96/15 35/95/15
f 62/98/15 67/101/15 35/100/15 26/99/15
f 60/102/15 66/105/15 67/104/15 62/103/15
f 66/106/33 70/109/33 68/108/33 60/107/33
f 66/110/9 67/113/9 71/112/9 70/111/9
f 67/114/34 62/117/34 69/116/34 71/115/34
f 62/118/3 60/121/3 68/120/3 69/119/3
f 64/122/35 61/125/35 72/124/35 74/123/35
f 61/126/20 63/129/20 73/128/20 72/127/20
f 64/130/21 74/133/21 75/132/21 65/131/21
f 63/134/36 65/137/36 75/136/36 73/135/36
f 19/138/5 45/141/5 77/140/5 56/139/5
f 56/142/37 77/145/37 76/144/37 57/143/37
f 71/146/15 68/148/15 70/147/15
f 71/149/15 69/151/15 68/150/15
f 73/152/15 74/154/15 72/153/15
f 73/155/15 75/157/15 74/156/15
