# Blender 4.2.1 LTS
# www.blender.org
mtllib deer.mtl
o Cube
v 9.230728 8.152854 -0.489307
v 9.230728 7.410221 -0.489307
v 7.230728 8.152854 -1.000000
v 7.118099 6.805535 -0.844223
v 7.118099 6.805535 0.000000
v 9.230728 8.152854 0.000000
v 7.230728 8.152854 0.000000
v 9.230728 7.410221 0.000000
v 5.290388 8.152854 -1.000000
v 5.290388 6.875477 -1.000000
v 5.290388 8.152854 0.000000
v 6.537384 6.875477 0.000000
v 6.334157 9.065112 0.000000
v 6.334157 9.065112 -1.000000
v 5.290388 9.065112 0.000000
v 5.290388 9.065112 -1.000000
v 3.725198 6.006832 -0.796964
v 3.725198 4.729455 -1.000000
v 3.725198 6.006832 0.000000
v 4.972194 4.729455 0.000000
v -3.293835 6.006832 -1.341026
v -3.293835 4.729455 -1.341026
v -3.293835 6.006832 0.000000
v -3.293835 4.729455 0.000000
v 3.725198 3.282232 -1.000000
v 3.725198 3.282232 0.000000
v -3.293835 3.282232 -1.341026
v -3.293835 3.282232 0.000000
v 3.725198 3.282232 -0.500000
v -3.293835 3.282232 -0.670513
v 0.215682 3.282232 0.000000
v -2.276365 3.282232 -1.170513
v -2.276365 3.282232 -0.585256
v 2.810030 3.282232 -1.044464
v 2.810030 3.282232 0.000000
v 2.810030 3.282232 -0.522232
v 3.725198 -0.533304 -1.531969
v 3.725198 -0.533304 -1.031969
v 2.810030 -0.533304 -1.576433
v 2.810030 -0.533304 -1.054201
v -3.936625 -0.668707 -1.690788
v -3.936625 -0.668707 -1.020276
v -2.919156 -0.668707 -1.520276
v -2.919156 -0.668707 -0.935019
v 0.265580 6.006832 0.000000
v 0.265580 4.729455 -1.168088
v 0.265580 6.006832 -0.965053
v 9.230728 8.152854 0.489307
v 9.230728 7.410221 0.489307
v 7.230728 8.152854 1.000000
v 7.118099 6.805535 0.844223
v 5.290388 8.152854 1.000000
v 5.290388 6.875477 1.000000
v 6.334157 9.065112 1.000000
v 5.290388 9.065112 1.000000
v 3.725198 6.006832 0.796964
v 3.725198 4.729455 1.000000
v -3.293835 6.006832 1.341026
v -3.293835 4.729455 1.341026
v 3.725198 3.282232 1.000000
v -3.293835 3.282232 1.341026
v 3.725198 3.282232 0.500000
v -3.293835 3.282232 0.670513
v -2.276365 3.282232 1.170513
v -2.276365 3.282232 0.585256
v 2.810030 3.282232 1.044464
v 2.810030 3.282232 0.522232
v 3.725198 -0.533304 1.531969
v 3.725198 -0.533304 1.031969
v 2.810030 -0.533304 1.576433
v 2.810030 -0.533304 1.054201
v -3.936625 -0.668707 1.690788
v -3.936625 -0.668707 1.020276
v -2.919156 -0.668707 1.520276
v -2.919156 -0.668707 0.935019
v 0.265580 4.729455 1.168088
v 0.265580 6.006832 0.965053
vn -0.0606 -0.9973 0.0410
vn 0.2171 -0.0842 -0.9725
vn 1.0000 -0.0000 -0.0000
vn 0.2752 -0.9614 -0.0000
vn -0.0000 1.0000 -0.0000
vn -0.8079 0.5893 -0.0000
vn 0.0401 -0.0609 -0.9973
vn -0.0000 -0.0000 -1.0000
vn -1.0000 -0.0000 -0.0000
vn 0.7132 0.7009 -0.0000
vn 0.7970 -0.3434 -0.4969
vn 0.5692 -0.4151 -0.7097
vn -0.1707 0.0781 -0.9822
vn 0.0766 0.0790 -0.9939
vn -0.0000 -1.0000 -0.0000
vn 0.0485 -0.0363 -0.9982
vn 0.0481 0.1379 -0.9893
vn -0.0241 -0.1380 0.9901
vn 0.1650 0.0603 -0.9845
vn -0.9870 0.1606 -0.0000
vn 0.9870 -0.1606 -0.0000
vn -0.0833 -0.0744 0.9937
vn 0.0479 0.1568 -0.9865
vn -0.0606 -0.9973 -0.0410
vn 0.2171 -0.0842 0.9725
vn 0.0401 -0.0609 0.9973
vn -0.0000 -0.0000 1.0000
vn 0.7970 -0.3434 0.4969
vn 0.5692 -0.4151 0.7097
vn -0.1707 0.0781 0.9822
vn 0.0766 0.0790 0.9939
vn 0.0485 -0.0363 0.9982
vn 0.0481 0.1379 0.9893
vn -0.0241 -0.1380 -0.9901
vn 0.1650 0.0603 0.9845
vn -0.0833 -0.0744 -0.9937
vn 0.0479 0.1568 0.9865
vt 0.249200 0.519472
vt 0.249200 0.625000
vt 0.125000 0.625000
vt 0.125000 0.500000
vt 0.422942 0.345730
vt 0.625000 0.250000
vt 0.625000 0.563837
vt 0.532171 0.563837
vt 0.625000 0.625000
vt 0.532171 0.625000
vt 0.875000 0.500000
vt 0.875000 0.625000
vt 0.625000 0.125000
vt 0.375000 0.250000
vt 0.125000 0.562500
vt 0.375000 0.125000
vt 0.375000 0.250000
vt 0.375000 0.187500
vt 0.000000 0.000000
s 0
usemtl Material
f 4/1/1 5/2/1 12/3/1 10/4/1
f 4/5/2 3/6/2 1/7/2 2/8/2
f 2/8/3 1/7/3 6/9/3 8/10/3
f 4/1/4 2/8/4 8/10/4 5/2/4
f 1/7/5 3/11/5 7/12/5 6/9/5
f 11/13/6 9/6/6 17/6/6 19/13/6
f 3/6/7 4/5/7 10/14/7 9/6/7
f 3/6/8 9/6/8 16/6/8 14/6/8
f 13/12/5 14/11/5 16/11/5 15/12/5
f 9/6/9 11/13/9 15/13/9 16/6/9
f 7/12/10 3/11/10 14/11/10 13/12/10
f 18/4/11 20/3/11 26/3/11 29/15/11 25/4/11
f 10/4/12 12/3/12 20/3/12 18/4/12
f 9/6/13 10/14/13 18/14/13 17/6/13
f 24/16/9 23/13/9 21/6/9 22/14/9
f 47/6/14 46/17/14 22/14/14 21/6/14
f 45/13/5 47/6/5 21/6/5 23/13/5
f 33/15/15 31/3/15 28/3/15 30/15/15
f 24/16/9 22/14/9 27/14/9 30/18/9 28/16/9
f 22/14/16 46/17/16 18/14/16 25/14/16 34/14/16 32/14/16 27/14/16
f 32/4/15 33/15/15 30/15/15 27/4/15
f 34/4/15 36/15/15 33/15/15 32/4/15
f 36/15/15 35/3/15 31/3/15 33/15/15
f 29/15/15 26/3/15 35/3/15 36/15/15
f 25/4/15 29/15/15 36/15/15 34/4/15
f 34/4/17 25/4/17 37/4/17 39/4/17
f 34/4/9 39/4/9 40/15/9 36/15/9
f 36/15/18 40/15/18 38/15/18 29/15/18
f 29/15/3 38/15/3 37/4/3 25/4/3
f 32/14/19 43/14/19 41/14/19 27/14/19
f 27/14/20 41/14/20 42/18/20 30/18/20
f 32/4/21 33/15/21 44/15/21 43/4/21
f 30/15/22 42/15/22 44/15/22 33/15/22
f 19/13/5 17/6/5 47/6/5 45/13/5
f 17/6/23 18/14/23 46/17/23 47/6/23
f 40/19/15 39/19/15 37/19/15
f 40/19/15 37/19/15 38/19/15
f 42/19/15 41/19/15 43/19/15
f 42/19/15 43/19/15 44/19/15
f 51/1/24 53/4/24 12/3/24 5/2/24
f 51/5/25 49/8/25 48/7/25 50/6/25
f 49/8/3 8/10/3 6/9/3 48/7/3
f 51/1/4 5/2/4 8/10/4 49/8/4
f 48/7/5 6/9/5 7/12/5 50/11/5
f 11/13/6 19/13/6 56/6/6 52/6/6
f 50/6/26 52/6/26 53/14/26 51/5/26
f 50/6/27 54/6/27 55/6/27 52/6/27
f 13/12/5 15/12/5 55/11/5 54/11/5
f 52/6/9 55/6/9 15/13/9 11/13/9
f 7/12/10 13/12/10 54/11/10 50/11/10
f 57/4/28 60/4/28 62/15/28 26/3/28 20/3/28
f 53/4/29 57/4/29 20/3/29 12/3/29
f 52/6/30 56/6/30 57/14/30 53/14/30
f 24/16/9 59/14/9 58/6/9 23/13/9
f 77/6/31 58/6/31 59/14/31 76/17/31
f 45/13/5 23/13/5 58/6/5 77/6/5
f 65/15/15 63/15/15 28/3/15 31/3/15
f 24/16/9 28/16/9 63/18/9 61/14/9 59/14/9
f 59/14/32 61/14/32 64/14/32 66/14/32 60/14/32 57/14/32 76/17/32
f 64/4/15 61/4/15 63/15/15 65/15/15
f 66/4/15 64/4/15 65/15/15 67/15/15
f 67/15/15 65/15/15 31/3/15 35/3/15
f 62/15/15 67/15/15 35/3/15 26/3/15
f 60/4/15 66/4/15 67/15/15 62/15/15
f 66/4/33 70/4/33 68/4/33 60/4/33
f 66/4/9 67/15/9 71/15/9 70/4/9
f 67/15/34 62/15/34 69/15/34 71/15/34
f 62/15/3 60/4/3 68/4/3 69/15/3
f 64/14/35 61/14/35 72/14/35 74/14/35
f 61/14/20 63/18/20 73/18/20 72/14/20
f 64/4/21 74/4/21 75/15/21 65/15/21
f 63/15/36 65/15/36 75/15/36 73/15/36
f 19/13/5 45/13/5 77/6/5 56/6/5
f 56/6/37 77/6/37 76/17/37 57/14/37
f 71/19/15 68/19/15 70/19/15
f 71/19/15 69/19/15 68/19/15
f 73/19/15 74/19/15 72/19/15
f 73/19/15 75/19/15 74/19/15
