# Blender 4.2.1 LTS
# www.blender.org
mtllib wolf.mtl
o Cube
v 5.961932 4.743532 -0.489307
v 5.961932 4.000899 -0.489307
v 3.008004 4.743532 -1.000000
v 4.752818 3.396213 -0.844223
v 3.366885 3.396213 0.000000
v 5.961932 4.743532 0.000000
v 4.084824 4.743532 0.000000
v 5.961932 4.000899 0.000000
v 2.069937 5.640608 -1.504101
v 2.925107 3.466155 -1.028439
v 2.034320 5.482483 0.000000
v 2.786170 3.466155 0.000000
v 3.968877 5.655790 0.000000
v 2.892058 5.655790 -1.000000
v 2.925107 5.655790 0.000000
v 2.925107 5.655790 -1.000000
v 0.748737 4.861892 -1.151190
v 0.748737 2.128650 -1.070267
v -0.142050 4.861892 0.000000
v 0.609799 2.128650 0.000000
v -5.602261 5.162455 -1.374662
v -5.524501 2.855649 -1.941510
v -5.602261 5.162455 0.000000
v -5.663440 2.855649 0.000000
v 0.679268 2.128650 -0.859019
v -5.593971 2.855649 -0.970755
v -0.243895 4.908869 0.000000
v -0.231742 2.242277 -1.752966
v -0.243895 4.908869 -1.186118
v -0.370680 2.242277 0.000000
v -0.301211 2.242277 -0.876483
v 0.311914 -0.279577 -2.183559
v 0.242445 -0.279577 -1.324540
v -0.668565 -0.165950 -2.218487
v -0.738034 -0.165950 -1.342004
v -4.757197 2.766726 -1.914176
v -4.896136 2.766726 0.000000
v -4.826666 2.766726 -0.957088
v -4.825446 5.125692 0.000000
v -4.825446 5.125692 -1.347328
v -4.769468 -0.152251 -1.942549
v -5.536772 -0.063328 -1.969882
v -5.606242 -0.063328 -0.999128
v -4.838937 -0.152250 -0.985461
v 2.538971 5.271133 -1.878596
v -2.532898 5.017197 0.000000
v -2.532898 5.017197 -0.879952
v -2.492719 2.504299 -1.446800
v -2.631658 2.504299 0.000000
v -2.562189 2.504299 -0.530046
v -6.340371 3.624103 -1.405587
v -6.262610 2.856795 -1.972435
v -6.340371 3.624103 0.000000
v -6.332079 2.856795 -1.001680
v -6.401549 2.856796 0.000000
v 5.961932 4.743532 0.489307
v 5.961932 4.000899 0.489307
v 3.008004 4.743532 1.000000
v 4.752818 3.396213 0.844223
v 2.069937 5.640608 1.504101
v 2.925107 3.466155 1.028439
v 2.892058 5.655790 1.000000
v 2.925107 5.655790 1.000000
v 0.748737 4.861892 1.151190
v 0.748737 2.128650 1.070267
v -5.602261 5.162455 1.374662
v -5.524501 2.855649 1.941510
v 0.679268 2.128650 0.859019
v -5.593971 2.855649 0.970755
v -0.231742 2.242277 1.752966
v -0.243895 4.908869 1.186118
v -0.301211 2.242277 0.876483
v 0.311914 -0.279577 2.183559
v 0.242445 -0.279577 1.324540
v -0.668565 -0.165950 2.218487
v -0.738034 -0.165950 1.342004
v -4.757197 2.766726 1.914176
v -4.826666 2.766726 0.957088
v -4.825446 5.125692 1.347328
v -4.769468 -0.152251 1.942549
v -5.536772 -0.063328 1.969882
v -5.606242 -0.063328 0.999128
v -4.838937 -0.152250 0.985461
v 2.538971 5.271133 1.878596
v -2.532898 5.017197 0.879952
v -2.492719 2.504299 1.446800
v -2.562189 2.504299 0.530046
v -6.340371 3.624103 1.405587
v -6.262610 2.856795 1.972435
v -6.332079 2.856795 1.001680
vn -0.0545 -0.9975 -0.0444
vn 0.1908 0.0864 -0.9778
vn 1.0000 -0.0000 -0.0000
vn 0.2674 -0.9226 0.2779
vn -0.0000 1.0000 -0.0000
vn 0.1025 -0.1510 -0.9832
vn 0.7281 0.4667 -0.5020
vn -0.1245 0.9904 0.0608
vn 0.6780 0.0862 -0.7300
vn -0.3770 0.9230 -0.0766
vn 0.0537 0.2374 -0.9699
vn 0.5182 -0.8525 0.0686
vn -0.0183 -0.1158 -0.9931
vn -0.0016 -1.0000 -0.0001
vn 0.0473 0.9989 -0.0000
vn -0.1150 -0.9933 -0.0083
vn 0.0367 0.0096 -0.9993
vn -0.9782 0.1924 -0.0775
vn -0.1150 -0.9933 -0.0092
vn 0.0845 0.9959 0.0322
vn 0.3467 0.0848 -0.9341
vn -0.1149 -0.9933 -0.0092
vn 0.3579 0.2316 -0.9046
vn 0.9681 -0.2168 0.1257
vn -0.0387 -0.1829 0.9824
vn -0.1135 -0.9935 -0.0084
vn -0.1141 -0.9934 -0.0107
vn 0.2134 0.2259 -0.9505
vn -0.1149 -0.9933 -0.0083
vn -0.0189 -0.0096 0.9998
vn 0.9974 -0.0049 0.0724
vn -0.9974 0.0049 -0.0714
vn 0.7238 0.4762 -0.4994
vn -0.1134 0.2113 -0.9708
vn -0.1160 -0.9932 -0.0115
vn -0.1164 -0.9932 -0.0090
vn -0.9991 0.0052 -0.0411
vn -0.2931 0.3177 -0.9018
vn -0.9016 0.4326 -0.0000
vn -0.0015 -1.0000 -0.0001
vn -0.0545 -0.9975 0.0444
vn 0.1908 0.0864 0.9778
vn 0.2674 -0.9226 -0.2779
vn 0.1025 -0.1510 0.9832
vn 0.7281 0.4667 0.5020
vn -0.1245 0.9904 -0.0608
vn 0.6780 0.0862 0.7300
vn -0.3770 0.9230 0.0766
vn 0.0537 0.2374 0.9699
vn 0.5182 -0.8525 -0.0686
vn -0.0183 -0.1158 0.9931
vn -0.0016 -1.0000 0.0001
vn -0.1150 -0.9933 0.0083
vn 0.0367 0.0096 0.9993
vn -0.9782 0.1924 0.0775
vn -0.1150 -0.9933 0.0092
vn 0.0845 0.9959 -0.0322
vn 0.3467 0.0848 0.9341
vn -0.1149 -0.9933 0.0092
vn 0.3579 0.2316 0.9046
vn 0.9681 -0.2168 -0.1257
vn -0.0387 -0.1829 -0.9824
vn -0.1135 -0.9935 0.0084
vn -0.1141 -0.9934 0.0107
vn 0.2134 0.2259 0.9505
vn -0.1149 -0.9933 0.0083
vn -0.0189 -0.0096 -0.9998
vn 0.9974 -0.0049 -0.0724
vn -0.9974 0.0049 0.0714
vn 0.7238 0.4762 0.4994
vn -0.1134 0.2113 0.9708
vn -0.1160 -0.9932 0.0115
vn -0.1164 -0.9932 0.0090
vn -0.9991 0.0052 0.0411
vn -0.2931 0.3177 0.9018
vn -0.0015 -1.0000 0.0001
vt 0.249200 0.519472
vt 0.249200 0.625000
vt 0.125000 0.625000
vt 0.125000 0.500000
vt 0.422942 0.345730
vt 0.625000 0.250000
vt 0.625000 0.563837
vt 0.532171 0.563837
vt 0.625000 0.625000
vt 0.532171 0.625000
vt 0.875000 0.500000
vt 0.875000 0.625000
vt 0.375000 0.250000
vt 0.625000 0.125000
vt 0.125000 0.562500
vt 0.125000 0.562500
vt 0.625000 0.125000
s 0
usemtl Material
f 4/1/1 5/2/1 12/3/1 10/4/1
f 4/5/2 3/6/2 1/7/2 2/8/2
f 2/8/3 1/7/3 6/9/3 8/10/3
f 4/1/4 2/8/4 8/10/4 5/2/4
f 1/7/5 3/11/5 7/12/5 6/9/5
f 3/6/6 4/5/6 10/13/6 9/6/6 45/6/6
f 3/6/7 45/6/7 9/6/7 16/6/7 14/6/7
f 13/12/5 14/11/5 16/11/5 15/12/5
f 9/6/8 11/14/8 15/14/8 16/6/8
f 7/12/9 3/11/9 14/11/9 13/12/9
f 11/14/10 9/6/10 17/6/10 19/14/10
f 40/6/11 36/13/11 22/13/11 21/6/11
f 10/4/12 12/3/12 20/3/12 25/15/12 18/4/12
f 9/6/13 10/13/13 18/13/13 17/6/13
f 26/15/14 24/3/14 55/3/14 54/15/14
f 39/14/15 40/6/15 21/6/15 23/14/15
f 38/15/16 37/3/16 24/3/16 26/15/16
f 22/13/17 36/13/17 41/13/17 42/13/17
f 31/16/18 28/4/18 34/4/18 35/16/18
f 25/15/19 20/3/19 30/3/19 31/16/19
f 19/14/20 17/6/20 29/6/20 27/14/20
f 17/6/21 18/13/21 28/13/21 29/6/21
f 32/4/22 33/15/22 35/16/22 34/4/22
f 28/13/23 18/13/23 32/13/23 34/13/23
f 18/4/24 25/15/24 33/15/24 32/4/24
f 25/15/25 31/16/25 35/16/25 33/15/25
f 48/4/26 50/15/26 38/15/26 36/4/26
f 50/15/27 49/3/27 37/3/27 38/15/27
f 46/17/15 47/6/15 40/6/15 39/14/15
f 47/6/28 48/13/28 36/13/28 40/6/28
f 41/4/29 44/15/29 43/15/29 42/4/29
f 38/15/30 26/15/30 43/15/30 44/15/30
f 36/4/31 38/15/31 44/15/31 41/4/31
f 26/15/32 22/4/32 42/4/32 43/15/32
f 3/6/33 45/6/33 9/6/33 14/6/33
f 29/6/34 28/13/34 48/13/34 47/6/34
f 27/14/15 29/6/15 47/6/15 46/17/15
f 31/16/35 30/3/35 49/3/35 50/15/35
f 28/4/36 31/16/36 50/15/36 48/4/36
f 52/4/37 54/15/37 55/3/37 53/14/37 51/6/37
f 21/6/38 22/13/38 52/13/38 51/6/38
f 23/14/39 21/6/39 51/6/39 53/14/39
f 22/4/40 26/15/40 54/15/40 52/4/40
f 59/1/41 61/4/41 12/3/41 5/2/41
f 59/5/42 57/8/42 56/7/42 58/6/42
f 57/8/3 8/10/3 6/9/3 56/7/3
f 59/1/43 5/2/43 8/10/43 57/8/43
f 56/7/5 6/9/5 7/12/5 58/11/5
f 58/6/44 84/6/44 60/6/44 61/13/44 59/5/44
f 58/6/45 62/6/45 63/6/45 60/6/45 84/6/45
f 13/12/5 15/12/5 63/11/5 62/11/5
f 60/6/46 63/6/46 15/14/46 11/14/46
f 7/12/47 13/12/47 62/11/47 58/11/47
f 11/14/48 19/14/48 64/6/48 60/6/48
f 79/6/49 66/6/49 67/13/49 77/13/49
f 61/4/50 65/4/50 68/15/50 20/3/50 12/3/50
f 60/6/51 64/6/51 65/13/51 61/13/51
f 69/15/52 90/15/52 55/3/52 24/3/52
f 39/14/15 23/14/15 66/6/15 79/6/15
f 78/15/53 69/15/53 24/3/53 37/3/53
f 67/13/54 81/13/54 80/13/54 77/13/54
f 72/16/55 76/16/55 75/4/55 70/4/55
f 68/15/56 72/16/56 30/3/56 20/3/56
f 19/14/57 27/14/57 71/6/57 64/6/57
f 64/6/58 71/6/58 70/13/58 65/13/58
f 73/4/59 75/4/59 76/16/59 74/15/59
f 70/13/60 75/13/60 73/13/60 65/13/60
f 65/4/61 73/4/61 74/15/61 68/15/61
f 68/15/62 74/15/62 76/16/62 72/16/62
f 86/4/63 77/4/63 78/15/63 87/15/63
f 87/15/64 78/15/64 37/3/64 49/3/64
f 46/17/15 39/14/15 79/6/15 85/6/15
f 85/6/65 79/6/65 77/13/65 86/13/65
f 80/4/66 81/4/66 82/15/66 83/15/66
f 78/15/67 83/15/67 82/15/67 69/15/67
f 77/4/68 80/4/68 83/15/68 78/15/68
f 69/15/69 82/15/69 81/4/69 67/4/69
f 58/6/70 62/6/70 60/6/70 84/6/70
f 71/6/71 85/6/71 86/13/71 70/13/71
f 27/14/15 46/17/15 85/6/15 71/6/15
f 72/16/72 87/15/72 49/3/72 30/3/72
f 70/4/73 86/4/73 87/15/73 72/16/73
f 89/4/74 88/6/74 53/14/74 55/3/74 90/15/74
f 66/6/75 88/6/75 89/13/75 67/13/75
f 23/14/39 53/14/39 88/6/39 66/6/39
f 67/4/76 89/4/76 90/15/76 69/15/76
l 9 18
l 60 65
